<svg height="480pt" viewBox="-48 0 480 480.04864" width="480pt" xmlns="http://www.w3.org/2000/svg"><path d="m344.023438 48.046875h-64v-8c0-4.417969-3.582032-8-8-8h-34.726563c-6.765625-19.203125-24.910156-32.046875-45.273437-32.046875-20.359376 0-38.503907 12.84375-45.269532 32.046875h-34.730468c-4.417969 0-8 3.582031-8 8v8h-64c-22.078126.027344-39.9726568 17.921875-40.0000005 40v352c.0273437 22.082031 17.9218745 39.976563 40.0000005 40h304c22.082031-.023437 39.972656-17.917969 40-40v-352c-.027344-22.078125-17.917969-39.972656-40-40zm-8 320h-40c-13.253907 0-24 10.746094-24 24v40h-224v-336h56v8c0 4.421875 3.582031 8 8 8h160c4.417968 0 8-3.578125 8-8v-8h56zm-11.3125 16-36.6875 36.691406v-28.691406c0-4.417969 3.582031-8 8-8zm-204.6875-336h32.800781c3.800781.003906 7.078125-2.671875 7.839843-6.398437 3.027344-14.914063 16.140626-25.632813 31.359376-25.632813s28.332031 10.71875 31.359374 25.632813c.761719 3.726562 4.039063 6.402343 7.839844 6.398437h32.800782v48h-144zm248 392c0 13.257813-10.746094 24-24 24h-304c-13.253907 0-24-10.742187-24-24v-352c0-13.253906 10.746093-24 24-24h64v16h-64c-4.417969 0-8 3.582031-8 8v352c0 4.421875 3.582031 8 8 8h240c2.121093-.003906 4.15625-.84375 5.65625-2.34375l64-64c.667968-.679687 1.210937-1.472656 1.601562-2.34375.109375-.246094.175781-.488281.261719-.742187.230469-.671876.371093-1.371094.417969-2.082032 0-.167968.09375-.320312.09375-.488281v-288c0-4.417969-3.582032-8-8-8h-64.03125v-16h64c13.253906 0 24 10.746094 24 24zm0 0"/><path d="m208.023438 48.046875c0 8.839844-7.164063 16-16 16-8.835938 0-16-7.160156-16-16 0-8.835937 7.164062-16 16-16 8.835937 0 16 7.164063 16 16zm0 0"/><path d="m96.023438 168.046875h-8c-4.417969 0-8 3.582031-8 8 0 4.421875 3.582031 8 8 8h8c4.417968 0 8-3.578125 8-8 0-4.417969-3.582032-8-8-8zm0 0"/><path d="m120.023438 176.046875c0 4.421875 3.582031 8 8 8h168c4.417968 0 8-3.578125 8-8 0-4.417969-3.582032-8-8-8h-168c-4.417969 0-8 3.582031-8 8zm0 0"/><path d="m96.023438 216.046875h-8c-4.417969 0-8 3.582031-8 8 0 4.421875 3.582031 8 8 8h8c4.417968 0 8-3.578125 8-8 0-4.417969-3.582032-8-8-8zm0 0"/><path d="m296.023438 216.046875h-168c-4.417969 0-8 3.582031-8 8 0 4.421875 3.582031 8 8 8h168c4.417968 0 8-3.578125 8-8 0-4.417969-3.582032-8-8-8zm0 0"/><path d="m96.023438 264.046875h-8c-4.417969 0-8 3.582031-8 8 0 4.421875 3.582031 8 8 8h8c4.417968 0 8-3.578125 8-8 0-4.417969-3.582032-8-8-8zm0 0"/><path d="m296.023438 264.046875h-168c-4.417969 0-8 3.582031-8 8 0 4.421875 3.582031 8 8 8h168c4.417968 0 8-3.578125 8-8 0-4.417969-3.582032-8-8-8zm0 0"/><path d="m96.023438 312.046875h-8c-4.417969 0-8 3.582031-8 8 0 4.421875 3.582031 8 8 8h8c4.417968 0 8-3.578125 8-8 0-4.417969-3.582032-8-8-8zm0 0"/><path d="m296.023438 312.046875h-168c-4.417969 0-8 3.582031-8 8 0 4.421875 3.582031 8 8 8h168c4.417968 0 8-3.578125 8-8 0-4.417969-3.582032-8-8-8zm0 0"/><path d="m96.023438 360.046875h-8c-4.417969 0-8 3.582031-8 8 0 4.421875 3.582031 8 8 8h8c4.417968 0 8-3.578125 8-8 0-4.417969-3.582032-8-8-8zm0 0"/><path d="m256.023438 360.046875h-128c-4.417969 0-8 3.582031-8 8 0 4.421875 3.582031 8 8 8h128c4.417968 0 8-3.578125 8-8 0-4.417969-3.582032-8-8-8zm0 0"/></svg>